<mxfile host="65bd71144e">
    <diagram id="SJ1X7kqYWJpOovSuzdIw" name="ページ1">
        <mxGraphModel dx="920" dy="670" grid="0" gridSize="10" guides="1" tooltips="1" connect="1" arrows="1" fold="1" page="1" pageScale="1" pageWidth="827" pageHeight="1169" background="#ffffff" math="0" shadow="0">
            <root>
                <mxCell id="0"/>
                <mxCell id="1" parent="0"/>
                <mxCell id="2" value="Quiz" style="swimlane;fontStyle=0;childLayout=stackLayout;horizontal=1;startSize=30;horizontalStack=0;resizeParent=1;resizeParentMax=0;resizeLast=0;collapsible=1;marginBottom=0;whiteSpace=wrap;html=1;fillColor=#f5f5f5;fontColor=#333333;strokeColor=#666666;" vertex="1" parent="1">
                    <mxGeometry x="274" y="132" width="140" height="140" as="geometry"/>
                </mxCell>
                <mxCell id="3" value="・correct or incorrect&lt;br&gt;・explanation" style="text;strokeColor=#000000;fillColor=none;align=left;verticalAlign=middle;spacingLeft=4;spacingRight=4;overflow=hidden;points=[[0,0.5],[1,0.5]];portConstraint=eastwest;rotatable=0;whiteSpace=wrap;html=1;fontColor=#000000;" vertex="1" parent="2">
                    <mxGeometry y="30" width="140" height="55" as="geometry"/>
                </mxCell>
                <mxCell id="26" value="・selection: hasMany&lt;br&gt;・category: belongsTo" style="text;strokeColor=#000000;fillColor=none;align=left;verticalAlign=middle;spacingLeft=4;spacingRight=4;overflow=hidden;points=[[0,0.5],[1,0.5]];portConstraint=eastwest;rotatable=0;whiteSpace=wrap;html=1;fontColor=#000000;" vertex="1" parent="2">
                    <mxGeometry y="85" width="140" height="55" as="geometry"/>
                </mxCell>
                <mxCell id="5" value="admin" style="swimlane;fontStyle=0;childLayout=stackLayout;horizontal=1;startSize=30;horizontalStack=0;resizeParent=1;resizeParentMax=0;resizeLast=0;collapsible=1;marginBottom=0;whiteSpace=wrap;html=1;fillColor=#f5f5f5;fontColor=#333333;strokeColor=#666666;" vertex="1" parent="1">
                    <mxGeometry x="274" y="319" width="140" height="113" as="geometry"/>
                </mxCell>
                <mxCell id="6" value="・email address&lt;br&gt;・password&lt;br&gt;・admin name" style="text;strokeColor=none;fillColor=none;align=left;verticalAlign=middle;spacingLeft=4;spacingRight=4;overflow=hidden;points=[[0,0.5],[1,0.5]];portConstraint=eastwest;rotatable=0;whiteSpace=wrap;html=1;fontColor=#000000;" vertex="1" parent="5">
                    <mxGeometry y="30" width="140" height="83" as="geometry"/>
                </mxCell>
                <mxCell id="9" style="rounded=0;html=1;entryX=0;entryY=0.5;entryDx=0;entryDy=0;strokeColor=#000000;fontColor=#000000;startArrow=ERone;startFill=0;endArrow=ERzeroToMany;endFill=0;elbow=vertical;" edge="1" parent="1" source="10" target="3">
                    <mxGeometry relative="1" as="geometry">
                        <mxPoint x="273.32000000000005" y="213.25" as="targetPoint"/>
                    </mxGeometry>
                </mxCell>
                <mxCell id="10" value="Category" style="swimlane;fontStyle=0;childLayout=stackLayout;horizontal=1;startSize=30;horizontalStack=0;resizeParent=1;resizeParentMax=0;resizeLast=0;collapsible=1;marginBottom=0;whiteSpace=wrap;html=1;fillColor=#f5f5f5;fontColor=#333333;strokeColor=#666666;" vertex="1" parent="1">
                    <mxGeometry x="31" y="132" width="140" height="112" as="geometry"/>
                </mxCell>
                <mxCell id="11" value="・category name&lt;br&gt;・explanation" style="text;strokeColor=#000000;fillColor=none;align=left;verticalAlign=middle;spacingLeft=4;spacingRight=4;overflow=hidden;points=[[0,0.5],[1,0.5]];portConstraint=eastwest;rotatable=0;whiteSpace=wrap;html=1;fontColor=#000000;" vertex="1" parent="10">
                    <mxGeometry y="30" width="140" height="52" as="geometry"/>
                </mxCell>
                <mxCell id="12" value="&lt;font color=&quot;#000000&quot;&gt;・quiz: hasMany&lt;/font&gt;" style="text;strokeColor=none;fillColor=none;align=left;verticalAlign=middle;spacingLeft=4;spacingRight=4;overflow=hidden;points=[[0,0.5],[1,0.5]];portConstraint=eastwest;rotatable=0;whiteSpace=wrap;html=1;" vertex="1" parent="10">
                    <mxGeometry y="82" width="140" height="30" as="geometry"/>
                </mxCell>
                <mxCell id="14" value="Selection" style="swimlane;fontStyle=0;childLayout=stackLayout;horizontal=1;startSize=30;horizontalStack=0;resizeParent=1;resizeParentMax=0;resizeLast=0;collapsible=1;marginBottom=0;whiteSpace=wrap;html=1;fillColor=#f5f5f5;fontColor=#333333;strokeColor=#666666;" vertex="1" parent="1">
                    <mxGeometry x="503" y="132" width="140" height="111" as="geometry"/>
                </mxCell>
                <mxCell id="15" value="・question&lt;br&gt;・explanation of answer" style="text;strokeColor=#000000;fillColor=none;align=left;verticalAlign=middle;spacingLeft=4;spacingRight=4;overflow=hidden;points=[[0,0.5],[1,0.5]];portConstraint=eastwest;rotatable=0;whiteSpace=wrap;html=1;fontColor=#000000;" vertex="1" parent="14">
                    <mxGeometry y="30" width="140" height="51" as="geometry"/>
                </mxCell>
                <mxCell id="25" value="・quiz: belongsTo" style="text;strokeColor=#000000;fillColor=none;align=left;verticalAlign=middle;spacingLeft=4;spacingRight=4;overflow=hidden;points=[[0,0.5],[1,0.5]];portConstraint=eastwest;rotatable=0;whiteSpace=wrap;html=1;fontColor=#000000;" vertex="1" parent="14">
                    <mxGeometry y="81" width="140" height="30" as="geometry"/>
                </mxCell>
                <mxCell id="27" style="html=1;entryX=0;entryY=0.5;entryDx=0;entryDy=0;rounded=0;strokeColor=#000000;endArrow=ERoneToMany;endFill=0;startArrow=ERone;startFill=0;" edge="1" parent="1" source="3" target="15">
                    <mxGeometry relative="1" as="geometry"/>
                </mxCell>
                <mxCell id="28" value="&lt;font style=&quot;font-size: 20px;&quot;&gt;Model class&lt;/font&gt;" style="text;html=1;align=center;verticalAlign=middle;resizable=0;points=[];autosize=1;strokeColor=none;fillColor=none;fontColor=#000000;" vertex="1" parent="1">
                    <mxGeometry x="28" y="56" width="124" height="36" as="geometry"/>
                </mxCell>
                <mxCell id="29" value="playController" style="swimlane;fontStyle=0;childLayout=stackLayout;horizontal=1;startSize=30;horizontalStack=0;resizeParent=1;resizeParentMax=0;resizeLast=0;collapsible=1;marginBottom=0;whiteSpace=wrap;html=1;fillColor=#f5f5f5;fontColor=#333333;strokeColor=#666666;" vertex="1" parent="1">
                    <mxGeometry x="410" y="782" width="229" height="125" as="geometry"/>
                </mxCell>
                <mxCell id="30" value="・Show a top page&lt;br&gt;・Show a quiz start page&lt;br&gt;・Show a quiz page&lt;br&gt;・Evaluate the correctness of answers&lt;br&gt;・Show a result page" style="text;strokeColor=#000000;fillColor=none;align=left;verticalAlign=middle;spacingLeft=4;spacingRight=4;overflow=hidden;points=[[0,0.5],[1,0.5]];portConstraint=eastwest;rotatable=0;whiteSpace=wrap;html=1;fontColor=#000000;" vertex="1" parent="29">
                    <mxGeometry y="30" width="229" height="95" as="geometry"/>
                </mxCell>
                <mxCell id="32" value="quizController" style="swimlane;fontStyle=0;childLayout=stackLayout;horizontal=1;startSize=30;horizontalStack=0;resizeParent=1;resizeParentMax=0;resizeLast=0;collapsible=1;marginBottom=0;whiteSpace=wrap;html=1;fillColor=#f5f5f5;fontColor=#333333;strokeColor=#666666;" vertex="1" parent="1">
                    <mxGeometry x="435" y="552" width="204" height="127" as="geometry"/>
                </mxCell>
                <mxCell id="33" value="・Show a create quiz page&lt;br&gt;・Create a quiz&lt;br&gt;・Show an edit quiz page&lt;br&gt;・Edit a quiz&lt;br&gt;・Delete a quiz" style="text;strokeColor=none;fillColor=none;align=left;verticalAlign=middle;spacingLeft=4;spacingRight=4;overflow=hidden;points=[[0,0.5],[1,0.5]];portConstraint=eastwest;rotatable=0;whiteSpace=wrap;html=1;fontColor=#000000;" vertex="1" parent="32">
                    <mxGeometry y="30" width="204" height="97" as="geometry"/>
                </mxCell>
                <mxCell id="34" value="loginController" style="swimlane;fontStyle=0;childLayout=stackLayout;horizontal=1;startSize=30;horizontalStack=0;resizeParent=1;resizeParentMax=0;resizeLast=0;collapsible=1;marginBottom=0;whiteSpace=wrap;html=1;fillColor=#f5f5f5;fontColor=#333333;strokeColor=#666666;" vertex="1" parent="1">
                    <mxGeometry x="31" y="552" width="140" height="100" as="geometry"/>
                </mxCell>
                <mxCell id="35" value="・Login process&lt;br&gt;・Logout process&lt;br&gt;・Show a login page" style="text;strokeColor=#000000;fillColor=none;align=left;verticalAlign=middle;spacingLeft=4;spacingRight=4;overflow=hidden;points=[[0,0.5],[1,0.5]];portConstraint=eastwest;rotatable=0;whiteSpace=wrap;html=1;fontColor=#000000;" vertex="1" parent="34">
                    <mxGeometry y="30" width="140" height="70" as="geometry"/>
                </mxCell>
                <mxCell id="36" value="categoryController" style="swimlane;fontStyle=0;childLayout=stackLayout;horizontal=1;startSize=30;horizontalStack=0;resizeParent=1;resizeParentMax=0;resizeLast=0;collapsible=1;marginBottom=0;whiteSpace=wrap;html=1;fillColor=#f5f5f5;fontColor=#333333;strokeColor=#666666;" vertex="1" parent="1">
                    <mxGeometry x="211" y="552" width="185" height="162" as="geometry"/>
                </mxCell>
                <mxCell id="37" value="・Show a category list page&lt;br&gt;・Show a create category page&lt;br&gt;・Create a category&lt;br&gt;・Show an edit category page&lt;br&gt;・Update a category&lt;br&gt;・Show a category detail page&lt;br&gt;・Delete a category" style="text;strokeColor=#000000;fillColor=none;align=left;verticalAlign=middle;spacingLeft=4;spacingRight=4;overflow=hidden;points=[[0,0.5],[1,0.5]];portConstraint=eastwest;rotatable=0;whiteSpace=wrap;html=1;fontColor=#000000;" vertex="1" parent="36">
                    <mxGeometry y="30" width="185" height="132" as="geometry"/>
                </mxCell>
                <mxCell id="38" value="&lt;font style=&quot;font-size: 20px;&quot;&gt;Controller class&lt;/font&gt;" style="text;html=1;align=center;verticalAlign=middle;resizable=0;points=[];autosize=1;strokeColor=none;fillColor=none;fontColor=#000000;" vertex="1" parent="1">
                    <mxGeometry x="28" y="496" width="156" height="36" as="geometry"/>
                </mxCell>
            </root>
        </mxGraphModel>
    </diagram>
</mxfile>